<?xml version="1.0" encoding="UTF-8"?>
<svg width="180px" height="51px" viewBox="0 0 180 51" version="1.1" xmlns="http://www.w3.org/2000/svg" xmlns:xlink="http://www.w3.org/1999/xlink">
    <!-- Generator: Sketch 55.1 (78136) - https://sketchapp.com -->
    <title>logo</title>
    <desc>Created with Sketch.</desc>
    <defs>
        <linearGradient x1="65.9751918%" y1="37.8844876%" x2="5.7195669%" y2="67.6643872%" id="linearGradient-1">
            <stop stop-color="#4DD0E1" offset="0%"></stop>
            <stop stop-color="#29B6F6" offset="100%"></stop>
        </linearGradient>
    </defs>
    <g id="tenant" stroke="none" stroke-width="1" fill="none" fill-rule="evenodd">
        <g id="tenant_login" transform="translate(-630.000000, -80.000000)">
            <g id="logo" transform="translate(630.000000, 80.000000)">
                <path d="M47.7036633,37.009068 L60.1538462,46.4086703 L56.7005522,51 L44.4865355,41.7786978 C41.1292955,45.7092146 36.5913073,48.5972678 31.4231032,49.8912856 L31.4231032,29.6648912 L31.4231032,14.2355389 L38.527457,18.7493108 L38.527457,41.2366784 C43.0359692,37.4703876 45.9050551,31.8007389 45.9050551,25.4597139 C45.9050551,14.1201883 36.7298796,4.92768656 25.4117269,4.92768656 C14.0935743,4.92768656 4.91839876,14.1201883 4.91839876,25.4597139 C4.91839876,31.4074239 7.44260126,36.7644616 11.4762638,40.5141682 L11.4762638,23.1155785 L18.5806176,19.3306436 L18.5806176,49.7478874 C7.87043546,46.8080386 0,36.9862911 0,25.3228337 C0,11.3374188 11.3160498,0 25.2751048,0 C39.2341597,0 50.5502095,11.3374188 50.5502095,25.3228337 C50.5502095,29.5381117 49.5222013,33.5128321 47.7036633,37.009068 Z M28.1441707,50.4843178 C27.2025207,50.590912 26.2451951,50.6456674 25.2751048,50.6456674 C23.9271761,50.6456674 22.6038919,50.5399525 21.3130613,50.3363467 L21.3130613,17.8748994 L28.1441707,14.2355389 L28.1441707,45.8108248 L28.1441707,50.4843178 Z" id="Combined-Shape" fill="url(#linearGradient-1)"></path>
                <path d="M83.84422,24.3632719 C83.84422,23.6605535 83.745208,22.9883981 83.5471811,22.3467856 C83.3491542,21.7051731 83.0368856,21.1399515 82.6103661,20.6511039 C82.1838465,20.1622563 81.6430888,19.7727117 80.9880766,19.4824585 C80.3330644,19.1922052 79.5638175,19.0470807 78.6803127,19.0470807 C77.0351658,19.0470807 75.6413818,19.5435591 74.4989187,20.5365308 C73.3564556,21.5295026 72.7243022,22.8050702 72.6024395,24.3632719 L83.84422,24.3632719 Z M89.3280154,26.8380506 L89.3280154,27.5713183 C89.3280154,27.8157421 89.3127828,28.0601623 89.2823171,28.3045861 L72.6024395,28.3045861 C72.6633708,29.0989634 72.8690111,29.8245857 73.2193664,30.4814747 C73.5697218,31.1383637 74.0343165,31.7035852 74.6131644,32.1771564 C75.1920124,32.6507275 75.8470147,33.0249958 76.5781911,33.2999726 C77.3093675,33.5749494 78.0709981,33.7124357 78.8631059,33.7124357 C80.2340616,33.7124357 81.3917401,33.4603774 82.3361763,32.9562533 C83.2806124,32.4521292 84.0574757,31.7570595 84.6667893,30.8710232 L88.3226529,33.8040942 C86.1595895,36.7371798 83.0216713,38.2037007 78.9088042,38.2037007 C77.202726,38.2037007 75.6337669,37.9363661 74.2018798,37.4016891 C72.7699927,36.867012 71.5285348,36.1108372 70.4774687,35.133142 C69.4264027,34.1554468 68.6038416,32.9562604 68.0097608,31.5355471 C67.41568,30.1148337 67.1186441,28.5031884 67.1186441,26.7005629 C67.1186441,24.9284903 67.41568,23.316845 68.0097608,21.8655786 C68.6038416,20.4143123 69.4187864,19.1769353 70.4546196,18.1534107 C71.4904528,17.129886 72.7166781,16.3355205 74.1333323,15.7702905 C75.5499866,15.2050604 77.0808641,14.9224496 78.726011,14.9224496 C80.2492951,14.9224496 81.6583118,15.1745079 82.9531033,15.678632 C84.2478948,16.1827561 85.3674918,16.9312928 86.3119279,17.9242645 C87.2563641,18.9172362 87.9951458,20.1546132 88.5282952,21.6364325 C89.0614447,23.1182518 89.3280154,24.8521071 89.3280154,26.8380506 Z M110.478664,21.4302009 C109.991213,20.7885884 109.320978,20.231005 108.467939,19.7574339 C107.6149,19.2838627 106.685711,19.0470807 105.680343,19.0470807 C104.796838,19.0470807 103.98951,19.2303958 103.258333,19.5970315 C102.527157,19.9636673 102.161574,20.5747176 102.161574,21.4302009 C102.161574,22.2856842 102.565239,22.8890965 103.372579,23.2404557 C104.17992,23.5918149 105.360447,23.950807 106.914197,24.3174427 C107.73677,24.5007605 108.566948,24.7451807 109.404754,25.0507104 C110.24256,25.3562402 111.004191,25.761061 111.689669,26.2651851 C112.375147,26.7693092 112.931137,27.3956358 113.357657,28.1441837 C113.784176,28.8927316 113.997433,29.801669 113.997433,30.8710232 C113.997433,32.2153541 113.746095,33.3534354 113.243411,34.2853011 C112.740727,35.2171669 112.070492,35.9733417 111.232686,36.5538482 C110.39488,37.1343548 109.419992,37.5544519 108.307995,37.8141522 C107.195998,38.0738525 106.045935,38.2037007 104.857774,38.2037007 C103.151695,38.2037007 101.491341,37.8905374 99.8766596,37.2642014 C98.2619784,36.6378654 96.9215085,35.7442042 95.8552096,34.5831912 L99.4653749,31.1918278 C100.074689,31.9862052 100.866784,32.6430843 101.841686,33.1624849 C102.816588,33.6818855 103.898104,33.9415819 105.086265,33.9415819 C105.482319,33.9415819 105.885983,33.8957531 106.29727,33.8040942 C106.708557,33.7124353 107.089372,33.5673108 107.439727,33.3687165 C107.790083,33.1701221 108.071886,32.9027876 108.285146,32.5667049 C108.498406,32.2306221 108.605034,31.8181631 108.605034,31.3293155 C108.605034,30.4127263 108.186137,29.7558471 107.348331,29.3586585 C106.510525,28.9614698 105.253834,28.564287 103.578221,28.1670984 C102.755648,27.9837805 101.955936,27.7469985 101.179061,27.4567452 C100.402186,27.166492 99.7091022,26.7845855 99.0997885,26.3110144 C98.4904749,25.8374432 98.0030313,25.2493073 97.6374431,24.5465888 C97.2718549,23.8438704 97.0890636,22.9731237 97.0890636,21.9343225 C97.0890636,20.7122035 97.3404017,19.6581416 97.8430854,18.7721053 C98.3457692,17.886069 99.0083878,17.1604467 99.8309613,16.5952167 C100.653535,16.0299866 101.582724,15.6098895 102.618557,15.3349128 C103.65439,15.059936 104.720673,14.9224496 105.817438,14.9224496 C107.401653,14.9224496 108.947764,15.1974223 110.455815,15.7473759 C111.963866,16.2973294 113.159626,17.1375236 114.043131,18.2679837 L110.478664,21.4302009 Z M121.40384,14.5857329 L121.40384,9.03538889 L126.796239,8.21546929 L126.796239,14.8277486 L135.261044,14.8277486 L135.261044,19.4455394 L126.796239,19.4455394 L126.796239,30.1835847 C126.796239,31.1612799 126.971414,31.9709216 127.321769,32.6125341 C127.672125,33.2541466 128.546158,33.5758186 129.126801,33.6255055 C130.344294,33.729689 131.44961,33.6111995 132.150482,33.4458322 C132.851354,33.2804649 134.770834,32.603344 135.105956,32.4505792 L136.377472,36.6354427 C135.890021,36.8187605 132.768715,37.985221 132.005845,38.1416988 C131.242974,38.2981765 129.49997,38.3535109 128.890656,38.3535109 C127.428304,38.3535109 125.882278,37.8141542 124.968307,37.4016891 C124.054337,36.9892239 123.330788,36.4240023 122.797638,35.7060074 C122.264489,34.9880125 121.898906,34.1630945 121.700879,33.2312287 C121.502852,32.299363 121.40384,31.2987681 121.40384,30.2294139 L121.40384,19.9636654 L121.40384,14.5857329 Z M144.885375,15.5640589 L150.369171,15.5640589 L150.369171,37.5620914 L144.885375,37.5620914 L144.885375,15.5640589 Z M144.108504,8.09389373 C144.108504,7.20785744 144.436006,6.43640638 145.091018,5.7795174 C145.74603,5.12262842 146.576207,4.79418886 147.581575,4.79418886 C148.586942,4.79418886 149.432352,5.10735216 150.11783,5.73368817 C150.803308,6.36002417 151.146042,7.14675149 151.146042,8.09389373 C151.146042,9.04103598 150.803308,9.8277633 150.11783,10.4540993 C149.432352,11.0804353 148.586942,11.3935986 147.581575,11.3935986 C146.576207,11.3935986 145.74603,11.065159 145.091018,10.4082701 C144.436006,9.75138109 144.108504,8.97993003 144.108504,8.09389373 Z M174.516205,24.3632719 C174.516205,23.6605535 174.417193,22.9883981 174.219166,22.3467856 C174.021139,21.7051731 173.70887,21.1399515 173.282351,20.6511039 C172.855831,20.1622563 172.315073,19.7727117 171.660061,19.4824585 C171.005049,19.1922052 170.235802,19.0470807 169.352297,19.0470807 C167.70715,19.0470807 166.313366,19.5435591 165.170903,20.5365308 C164.02844,21.5295026 163.396287,22.8050702 163.274424,24.3632719 L174.516205,24.3632719 Z M180,26.8380506 L180,27.5713183 C180,27.8157421 179.984767,28.0601623 179.954302,28.3045861 L163.274424,28.3045861 C163.335355,29.0989634 163.540996,29.8245857 163.891351,30.4814747 C164.241706,31.1383637 164.706301,31.7035852 165.285149,32.1771564 C165.863997,32.6507275 166.518999,33.0249958 167.250176,33.2999726 C167.981352,33.5749494 168.742983,33.7124357 169.53509,33.7124357 C170.906046,33.7124357 172.063725,33.4603774 173.008161,32.9562533 C173.952597,32.4521292 174.72946,31.7570595 175.338774,30.8710232 L178.994638,33.8040942 C176.831574,36.7371798 173.693656,38.2037007 169.580789,38.2037007 C167.874711,38.2037007 166.305751,37.9363661 164.873864,37.4016891 C163.441977,36.867012 162.200519,36.1108372 161.149453,35.133142 C160.098387,34.1554468 159.275826,32.9562604 158.681745,31.5355471 C158.087665,30.1148337 157.790629,28.5031884 157.790629,26.7005629 C157.790629,24.9284903 158.087665,23.316845 158.681745,21.8655786 C159.275826,20.4143123 160.090771,19.1769353 161.126604,18.1534107 C162.162437,17.129886 163.388663,16.3355205 164.805317,15.7702905 C166.221971,15.2050604 167.752849,14.9224496 169.397996,14.9224496 C170.92128,14.9224496 172.330296,15.1745079 173.625088,15.678632 C174.919879,16.1827561 176.039476,16.9312928 176.983913,17.9242645 C177.928349,18.9172362 178.66713,20.1546132 179.20028,21.6364325 C179.733429,23.1182518 180,24.8521071 180,26.8380506 Z" id="estie" fill="#FFFFFF" fill-rule="nonzero"></path>
            </g>
        </g>
    </g>
</svg>